<svg xmlns="http://www.w3.org/2000/svg" viewBox="0 0 316.27 95.82"><defs><style>.cls-1{fill:#060606;}.cls-2{fill:#fe9b08;}</style></defs><title>amazon-logo</title><g id="Layer_2" data-name="Layer 2"><g id="Layer_1-2" data-name="Layer 1"><path class="cls-1" d="M93.26,55.37a51.13,51.13,0,0,1-11.76.22c-1.9-1.47-1.39-3.25-1.4-4.85,0-9,0-18,0-27a29.72,29.72,0,0,0-.5-5.95,5,5,0,0,0-4.82-4.31,5.49,5.49,0,0,0-5.92,3.63,20,20,0,0,0-1.18,7.35q.08,12.74,0,25.48c0,1.64.37,3.33-.65,5.37a41.45,41.45,0,0,1-12.16.12c-1.33-4.22-1.42-48.82-.18-53.29,3.78-1,7.68-.63,11.29-.2,1.72,1.47.39,3.55,2,5.14C71,2.89,75.1.45,80.42.6c5.52.16,9.3,3.08,11.64,7.9,1.94-.7,2.3-2.33,3.31-3.36a14.47,14.47,0,0,1,14.18-4.08c4.9,1.07,8.47,4,9.79,8.94a26.44,26.44,0,0,1,.83,7.91c-.49,11-.11,22-.23,33a8.3,8.3,0,0,1-.72,4.46c-3.86.85-8,.48-11.87.23-1.38-2-1-3.73-1-5.35,0-9,0-18,0-27a28.36,28.36,0,0,0-.26-4.47c-.58-3.55-2-4.94-5-5.1a6.25,6.25,0,0,0-6.43,4.46,21.61,21.61,0,0,0-.75,6.42c.05,8.49,0,17,0,25.48C93.92,51.65,94.15,53.33,93.26,55.37Z"/><path class="cls-1" d="M28.48,21.54c.58-7-.45-9.44-4.12-10.44-4.35-1.18-7.7,1-10.7,7.3-3.82-.24-7.86-.06-12-1.68.68-6.67,3.89-11.2,9.5-13.86A27.76,27.76,0,0,1,33,1.78c5.93,2.08,9.38,6.16,9.7,12.51.24,4.81.24,9.64.2,14.46-.06,6.65-.67,13.39,4.65,18.77-2.73,3.67-6.27,5.83-9.15,8.55-3.9-.66-5.09-3.94-7.24-6.13-1.34.34-2.17,1.42-3.2,2.24-5.35,4.28-11.47,5.09-17.89,3.52-4.9-1.2-8-4.61-9.32-9.46C-2,36.13,3,27,13.07,23.93,18,22.41,23.14,22.06,28.48,21.54ZM28.81,30c-4.27-.46-7.78.08-10.87,2.3a9,9,0,0,0-3,9.36c.82,2.81,2.6,4.31,5.26,4.43,3.19.15,5.8-1.82,7.49-5.45C29.23,37.3,28.67,33.84,28.81,30Z"/><path class="cls-1" d="M156.64,21.34c.65-6.51-.58-9.3-4.25-10.26-4.29-1.12-7.57,1-10.43,6.91a20.38,20.38,0,0,1-12.11-1.76,15.55,15.55,0,0,1,8.6-13,27.51,27.51,0,0,1,23.63-1.13,13.26,13.26,0,0,1,8.75,11.71,149.15,149.15,0,0,1,.39,14.94c0,10.63,0,10.63,4.1,19.21-2.54,3.13-5.84,5.55-9.05,8-3.73-.64-4.84-4-7.22-6.27-3.78,3.19-7.68,6.05-13,6.47-8.39.66-14.42-2.11-16.65-8.68-2.8-8.28-.52-16.48,6-20.9A23.91,23.91,0,0,1,145.1,23C148.85,22.35,152.63,21.9,156.64,21.34Zm.3,8.73a14.29,14.29,0,0,0-8.83,1A8.76,8.76,0,0,0,143,41.27c1.07,4.7,5.78,6.39,9.66,3.47a9.66,9.66,0,0,0,3.57-5.27A21.29,21.29,0,0,0,156.93,30.07Z"/><path class="cls-1" d="M299.65,14.19c-5.61-1.16-7.53-.07-9.26,4.91a22.25,22.25,0,0,0-.87,7.4c0,7.83,0,15.66,0,23.49,0,1.62.44,3.34-.89,5.4-3.82.84-8,.29-12.55.22V2.47c4-1.48,8-.91,12.09-.43,1,2.3.25,4.52.67,6.63,1.29,0,1.37-1.22,1.86-2,3.23-4.85,7.75-7.27,15.28-5.58,5.8,1.31,8.85,5.6,9.7,11.38a53.77,53.77,0,0,1,.56,7.46c.06,10.16,0,20.32,0,30.48,0,1.62.43,3.36-.82,4.75a28.44,28.44,0,0,1-12.26-.15c-1.14-1.45-.74-3.16-.74-4.8q0-13.74,0-27.48C302.38,19.74,302.18,16.76,299.65,14.19Z"/><path class="cls-2" d="M44.86,61.41c2.26-1,3.53.41,4.9,1.17a164.77,164.77,0,0,0,51.48,18.09,160.3,160.3,0,0,0,62.93-1.21,188.38,188.38,0,0,0,28-8.65c3.36-1.31,3.37-1.27,5.44,1.82-.48,2.16-2.37,3.07-4,4.16-13.46,9.07-28.44,14.24-44.3,17a116.83,116.83,0,0,1-26.82,1.84c-28-1.56-52.81-11-74.31-29C46.75,65.36,44.28,64.44,44.86,61.41Z"/><path class="cls-1" d="M268.66,29a30.35,30.35,0,0,1-5.08,18.42c-8.88,13.18-28.11,12.44-35.45-1.65A35.89,35.89,0,0,1,228,11.74c7.34-14.5,27.33-15.06,36-1.28A32.18,32.18,0,0,1,268.66,29Zm-22.14-18c-4.52.55-6.15,3.52-6.88,7.15a51.9,51.9,0,0,0,.08,20.34c1,5,3.35,7.49,6.71,7.45s5.93-2.38,6.81-7.4a54.54,54.54,0,0,0-.36-21.29C252.12,13.86,250.32,11.65,246.53,11.07Z"/><path class="cls-1" d="M219.62,43.11c-.14,3.87.54,7.33-.66,11.35-6.08-2-11.88-4.54-18.24-4.5a41.57,41.57,0,0,0-18,4.46c-.53-.28-1-.39-1.07-.59-1.21-5.22-2-10.4,1.4-15.21q7.57-10.84,15.11-21.7c.83-1.2,2-2.25,2.25-3.93-5.77-.7-11.61.46-17.34-.67a34.74,34.74,0,0,1-.21-9.64c3.55-1.14,29.72-1.38,35.54-.33v9L200,37.71C207.28,38,213.86,38.6,219.62,43.11Z"/><path class="cls-2" d="M180.41,65.36c4.64-7.62,22-10.31,31.27-5.47,2.78,9.22-4.23,25.72-12.24,28.84-1.1-.74-.69-1.62-.34-2.6q2.08-5.84,4-11.71a18.11,18.11,0,0,0,.67-8.2C196.34,62.75,188.58,65.73,180.41,65.36Z"/></g></g></svg>