<svg xmlns="http://www.w3.org/2000/svg" viewBox="0 0 591.44 236.8"><defs><style>.cls-1{fill:#e43339;}.cls-2{fill:#86b818;}.cls-3{fill:#0265d1;}.cls-4{fill:#f4af04;}</style></defs><title>ebay-logo</title><g id="Layer_2" data-name="Layer 2"><g id="Layer_1-2" data-name="Layer 1"><path class="cls-1" d="M148.7,129.86c-1.28.06-2.55.16-3.83.16q-55.5,0-111-.07c-2.77,0-3.23.81-3.07,3.31a41.51,41.51,0,0,0,35.12,38.37c9.69,1.6,19.26,1.26,28.55-2.23,8.87-3.33,15.59-9.13,19.61-17.8a2.49,2.49,0,0,1,2.63-1.75c9,.05,18,.07,26.93,0,1.88,0,2.08.58,1.66,2.26-3.85,15.26-13.62,25.44-27.47,32.11a78.92,78.92,0,0,1-28.49,7.19c-16.55,1.27-33,.55-48.76-5.06C17.29,178.1,4.66,161.19,1.13,137c-.3-2.08,0-4.3-1.13-6.22v-16c1.31-3.71,1.19-7.66,2-11.46,5.58-27,22.44-42.91,48.9-48.76,18.54-4.1,37.24-4.31,55.5,1.65,23.47,7.66,37.32,24,41.73,48.26a18.78,18.78,0,0,0,.57,2Q148.68,118.15,148.7,129.86ZM74.44,110.08q20.4,0,40.81,0c1.51,0,2.62.06,2.46-2.1-1.18-15.59-8.58-26.93-23.23-32.7-14.08-5.55-28.24-4.75-41.81,1.95-12,5.93-19.43,15.43-21,29-.44,3.79-.5,3.79,3.18,3.79Z"/><path class="cls-2" d="M467.21,236.8c8.28-15.77,16.52-31.56,24.87-47.29a4.51,4.51,0,0,0,0-4.83Q466.24,136.37,440.51,88c-.45-.84-.65-1.9-1.71-2.31a94.15,94.15,0,0,0-7.74-14.78c-.08-.44.06-1-.58-1.15l0,.05c-1.28-3.64-3.44-6.83-5.19-10.23-.81-1.58-1.12-2.35,1.25-2.33,10.26.09,20.52.12,30.78,0,2.17,0,2.59,1.31,3.28,2.69L508,154.84c.47,1,1,1.89,1.5,2.87,1.32-.69,1.52-2,2-3Q535.15,107.41,558.66,60c1-2.06,2.12-2.83,4.45-2.79,8.48.16,17,.05,25.45.08.94,0,1.94-.27,2.87.29.05,1.19-.71,2-1.18,3q-44.18,86.77-88.39,173.52c-.43.84-1.23,1.59-.91,2.7Z"/><path class="cls-3" d="M148.7,129.86q0-11.71,0-23.4c.07-1.66.19-3.34.19-5q0-49,0-98c0-2.63.56-3.54,3.38-3.47,8,.21,16,.16,24,0,2.33,0,3,.6,3,2.94-.09,22.4-.05,44.79-.05,67.19v4A50.06,50.06,0,0,1,195,60.79c13.48-7.16,28-9.07,43-8.33,14.43.71,27.75,4.81,39.28,13.73,15.48,12,23.18,28.2,25.32,47.37a93.32,93.32,0,0,1-.36,20.65,77.53,77.53,0,0,0-2.6,12c-2.29,5.75-4.56,11.51-8,16.69-11.65,17.32-28.23,26.36-48.64,28.93a85,85,0,0,1-29.38-1.46c-13.51-3-25.29-9.13-34.6-20.28-.3,4.92-.66,9.47-.82,14-.09,2.69-.86,3.81-3.94,3.69-7.68-.3-15.38-.22-23.06,0-2.63.06-2.94-.78-2.83-3.17C149.12,166.33,149,148.09,148.7,129.86Zm30.42-8a57.13,57.13,0,0,0,1.53,14.07c4.39,17.24,14.26,29.77,31.92,34.29s33.59.88,46.3-12.77c15.63-16.78,17.39-46.93,4-66C252.45,76.53,237.46,71.35,220,73c-18.33,1.72-30.69,11.79-37.33,28.89A55.34,55.34,0,0,0,179.12,121.86Z"/><path class="cls-4" d="M299.63,146.16a77.53,77.53,0,0,1,2.6-12c7.47-15.84,21.68-21.75,37.45-25.29,12.1-2.71,24.42-3.16,36.77-3.13,10.46,0,20.92,0,31.38,0,2.2,0,3-.42,3.08-2.88,1.08-21.23-14-28.72-28.63-30.73-8.9-1.23-17.75-.82-26.24,2.41-7.37,2.81-12.85,7.63-15,15.55a1.74,1.74,0,0,1-2,1.57c-9.28,0-18.55-.06-27.83,0-1.95,0-1.73-1.12-1.57-2.31a34,34,0,0,1,8.77-18.71c7.33-8.14,16.72-12.77,27.16-15.29,20.08-4.85,40.23-5.16,60.27.17,9,2.39,17,6.71,23.45,13.68.31.33.59.83,1.2.52l0-.05c-.35.66.07.93.58,1.15a94.15,94.15,0,0,1,7.74,14.78C441.87,98,441,110.58,441,123.08c.09,16.57,0,33.15.12,49.72,0,4.23.36,8.47.71,12.7.14,1.7-.33,2.21-2,2.19-7.79-.08-15.59-.09-23.38,0-1.85,0-2.42-.62-2.4-2.35,0-5.2,0-10.41,0-15.62l-1-.18c-1.08,1.2-2.12,2.44-3.23,3.6-9.44,9.83-21.23,15.18-34.39,17.68-16.44,3.13-32.79,3.08-48.59-3.22-14-5.58-23.44-15.32-26.38-30.56A71,71,0,0,1,299.63,146.16ZM364,172.89a58.1,58.1,0,0,0,13.15-1.24c14-2.83,24.77-9.82,30.6-23.33,2.84-6.58,3.28-13.51,3.18-20.57,0-2-.56-2.74-2.65-2.69-15.17.39-30.37-.13-45.49,1.61-7.26.83-14.46,2-21.07,5.33-5.15,2.61-8.92,6.42-10.13,12.32-2.15,10.49,2.67,20.2,12.49,24.9C350.21,172.17,356.82,173,364,172.89Z"/></g></g></svg>